<mxfile host="app.diagrams.net" agent="Mozilla/5.0 (Windows NT 10.0; Win64; x64) AppleWebKit/537.36 (KHTML, like Gecko) Chrome/132.0.0.0 Safari/537.36" version="26.0.9">
  <diagram name="Page-1" id="iuSUwUErKbb6vr74dXFE">
    <mxGraphModel grid="1" page="1" gridSize="10" guides="1" tooltips="1" connect="1" arrows="1" fold="1" pageScale="1" pageWidth="827" pageHeight="1169" math="0" shadow="0">
      <root>
        <mxCell id="0" />
        <mxCell id="1" parent="0" />
        <mxCell id="ERNzCt0yIxXoB6CuUdiW-5" value="Usuário" style="shape=umlActor;verticalLabelPosition=bottom;verticalAlign=top;html=1;outlineConnect=0;" vertex="1" parent="1">
          <mxGeometry x="30" y="205" width="30" height="60" as="geometry" />
        </mxCell>
        <mxCell id="ERNzCt0yIxXoB6CuUdiW-7" value="Servidor" style="swimlane;whiteSpace=wrap;html=1;" vertex="1" parent="1">
          <mxGeometry x="200" y="20" width="1030" height="1730" as="geometry" />
        </mxCell>
        <mxCell id="ERNzCt0yIxXoB6CuUdiW-10" value="Usuário" style="swimlane;horizontal=0;whiteSpace=wrap;html=1;" vertex="1" parent="ERNzCt0yIxXoB6CuUdiW-7">
          <mxGeometry x="214" y="40" width="746" height="350" as="geometry" />
        </mxCell>
        <mxCell id="ERNzCt0yIxXoB6CuUdiW-8" value="Banco de dados de usuário" style="shape=cylinder3;whiteSpace=wrap;html=1;boundedLbl=1;backgroundOutline=1;size=15;fillColor=#e1d5e7;strokeColor=#9673a6;" vertex="1" parent="ERNzCt0yIxXoB6CuUdiW-10">
          <mxGeometry x="526" y="150" width="60" height="80" as="geometry" />
        </mxCell>
        <mxCell id="ERNzCt0yIxXoB6CuUdiW-33" value="" style="rounded=0;whiteSpace=wrap;html=1;" vertex="1" parent="ERNzCt0yIxXoB6CuUdiW-10">
          <mxGeometry x="50" y="48.42" width="340" height="261.58" as="geometry" />
        </mxCell>
        <mxCell id="ERNzCt0yIxXoB6CuUdiW-34" value="" style="aspect=fixed;sketch=0;html=1;dashed=0;whitespace=wrap;verticalLabelPosition=bottom;verticalAlign=top;fillColor=#2875E2;strokeColor=#ffffff;points=[[0.005,0.63,0],[0.1,0.2,0],[0.9,0.2,0],[0.5,0,0],[0.995,0.63,0],[0.72,0.99,0],[0.5,1,0],[0.28,0.99,0]];shape=mxgraph.kubernetes.icon2;kubernetesLabel=1;prIcon=node" vertex="1" parent="ERNzCt0yIxXoB6CuUdiW-10">
          <mxGeometry x="195" y="20" width="50" height="48" as="geometry" />
        </mxCell>
        <mxCell id="ERNzCt0yIxXoB6CuUdiW-38" value="" style="group" connectable="0" vertex="1" parent="ERNzCt0yIxXoB6CuUdiW-10">
          <mxGeometry x="106" y="80" width="136" height="100" as="geometry" />
        </mxCell>
        <mxCell id="ERNzCt0yIxXoB6CuUdiW-39" value="Serviço auth" style="shape=hexagon;perimeter=hexagonPerimeter2;whiteSpace=wrap;html=1;fixedSize=1;" vertex="1" parent="ERNzCt0yIxXoB6CuUdiW-38">
          <mxGeometry x="16" y="20" width="120" height="80" as="geometry" />
        </mxCell>
        <mxCell id="ERNzCt0yIxXoB6CuUdiW-40" value="" style="aspect=fixed;sketch=0;html=1;dashed=0;whitespace=wrap;verticalLabelPosition=bottom;verticalAlign=top;fillColor=#2875E2;strokeColor=#ffffff;points=[[0.005,0.63,0],[0.1,0.2,0],[0.9,0.2,0],[0.5,0,0],[0.995,0.63,0],[0.72,0.99,0],[0.5,1,0],[0.28,0.99,0]];shape=mxgraph.kubernetes.icon2;kubernetesLabel=1;prIcon=pod" vertex="1" parent="ERNzCt0yIxXoB6CuUdiW-38">
          <mxGeometry width="50" height="48" as="geometry" />
        </mxCell>
        <mxCell id="ERNzCt0yIxXoB6CuUdiW-71" value="" style="group" connectable="0" vertex="1" parent="ERNzCt0yIxXoB6CuUdiW-10">
          <mxGeometry x="106" y="184.20999999999998" width="136" height="100" as="geometry" />
        </mxCell>
        <mxCell id="ERNzCt0yIxXoB6CuUdiW-72" value="Serviço auth" style="shape=hexagon;perimeter=hexagonPerimeter2;whiteSpace=wrap;html=1;fixedSize=1;" vertex="1" parent="ERNzCt0yIxXoB6CuUdiW-71">
          <mxGeometry x="16" y="20" width="120" height="80" as="geometry" />
        </mxCell>
        <mxCell id="ERNzCt0yIxXoB6CuUdiW-73" value="" style="aspect=fixed;sketch=0;html=1;dashed=0;whitespace=wrap;verticalLabelPosition=bottom;verticalAlign=top;fillColor=#2875E2;strokeColor=#ffffff;points=[[0.005,0.63,0],[0.1,0.2,0],[0.9,0.2,0],[0.5,0,0],[0.995,0.63,0],[0.72,0.99,0],[0.5,1,0],[0.28,0.99,0]];shape=mxgraph.kubernetes.icon2;kubernetesLabel=1;prIcon=pod" vertex="1" parent="ERNzCt0yIxXoB6CuUdiW-71">
          <mxGeometry width="50" height="48" as="geometry" />
        </mxCell>
        <mxCell id="ERNzCt0yIxXoB6CuUdiW-74" style="edgeStyle=orthogonalEdgeStyle;rounded=0;orthogonalLoop=1;jettySize=auto;html=1;entryX=0;entryY=0.5;entryDx=0;entryDy=0;entryPerimeter=0;dashed=1;fillColor=#e1d5e7;strokeColor=#9673a6;" edge="1" parent="ERNzCt0yIxXoB6CuUdiW-10" source="ERNzCt0yIxXoB6CuUdiW-39" target="ERNzCt0yIxXoB6CuUdiW-8">
          <mxGeometry relative="1" as="geometry">
            <Array as="points">
              <mxPoint x="446" y="140" />
              <mxPoint x="446" y="190" />
            </Array>
          </mxGeometry>
        </mxCell>
        <mxCell id="ERNzCt0yIxXoB6CuUdiW-75" style="edgeStyle=orthogonalEdgeStyle;rounded=0;orthogonalLoop=1;jettySize=auto;html=1;entryX=0;entryY=0.5;entryDx=0;entryDy=0;entryPerimeter=0;dashed=1;fillColor=#e1d5e7;strokeColor=#9673a6;" edge="1" parent="ERNzCt0yIxXoB6CuUdiW-10" source="ERNzCt0yIxXoB6CuUdiW-72" target="ERNzCt0yIxXoB6CuUdiW-8">
          <mxGeometry relative="1" as="geometry">
            <Array as="points">
              <mxPoint x="446" y="244" />
              <mxPoint x="446" y="190" />
            </Array>
          </mxGeometry>
        </mxCell>
        <mxCell id="ERNzCt0yIxXoB6CuUdiW-11" value="Processamento" style="swimlane;horizontal=0;whiteSpace=wrap;html=1;" vertex="1" parent="ERNzCt0yIxXoB6CuUdiW-7">
          <mxGeometry x="214" y="430" width="746" height="1250" as="geometry" />
        </mxCell>
        <mxCell id="ERNzCt0yIxXoB6CuUdiW-43" value="" style="group" connectable="0" vertex="1" parent="ERNzCt0yIxXoB6CuUdiW-11">
          <mxGeometry x="46" y="20" width="450" height="530" as="geometry" />
        </mxCell>
        <mxCell id="ERNzCt0yIxXoB6CuUdiW-23" value="" style="rounded=0;whiteSpace=wrap;html=1;" vertex="1" parent="ERNzCt0yIxXoB6CuUdiW-43">
          <mxGeometry y="30" width="350" height="500" as="geometry" />
        </mxCell>
        <mxCell id="ERNzCt0yIxXoB6CuUdiW-25" value="" style="aspect=fixed;sketch=0;html=1;dashed=0;whitespace=wrap;verticalLabelPosition=bottom;verticalAlign=top;fillColor=#2875E2;strokeColor=#ffffff;points=[[0.005,0.63,0],[0.1,0.2,0],[0.9,0.2,0],[0.5,0,0],[0.995,0.63,0],[0.72,0.99,0],[0.5,1,0],[0.28,0.99,0]];shape=mxgraph.kubernetes.icon2;kubernetesLabel=1;prIcon=node" vertex="1" parent="ERNzCt0yIxXoB6CuUdiW-43">
          <mxGeometry x="150" width="50" height="48" as="geometry" />
        </mxCell>
        <mxCell id="ERNzCt0yIxXoB6CuUdiW-27" value="" style="group" connectable="0" vertex="1" parent="ERNzCt0yIxXoB6CuUdiW-43">
          <mxGeometry x="67" y="60" width="136" height="100" as="geometry" />
        </mxCell>
        <mxCell id="ERNzCt0yIxXoB6CuUdiW-3" value="Serviço upload" style="shape=hexagon;perimeter=hexagonPerimeter2;whiteSpace=wrap;html=1;fixedSize=1;" vertex="1" parent="ERNzCt0yIxXoB6CuUdiW-27">
          <mxGeometry x="16" y="20" width="120" height="80" as="geometry" />
        </mxCell>
        <mxCell id="ERNzCt0yIxXoB6CuUdiW-26" value="" style="aspect=fixed;sketch=0;html=1;dashed=0;whitespace=wrap;verticalLabelPosition=bottom;verticalAlign=top;fillColor=#2875E2;strokeColor=#ffffff;points=[[0.005,0.63,0],[0.1,0.2,0],[0.9,0.2,0],[0.5,0,0],[0.995,0.63,0],[0.72,0.99,0],[0.5,1,0],[0.28,0.99,0]];shape=mxgraph.kubernetes.icon2;kubernetesLabel=1;prIcon=pod" vertex="1" parent="ERNzCt0yIxXoB6CuUdiW-27">
          <mxGeometry width="50" height="48" as="geometry" />
        </mxCell>
        <mxCell id="ERNzCt0yIxXoB6CuUdiW-28" value="" style="group" connectable="0" vertex="1" parent="ERNzCt0yIxXoB6CuUdiW-43">
          <mxGeometry x="67" y="340" width="136" height="100" as="geometry" />
        </mxCell>
        <mxCell id="ERNzCt0yIxXoB6CuUdiW-29" value="Serviço upload" style="shape=hexagon;perimeter=hexagonPerimeter2;whiteSpace=wrap;html=1;fixedSize=1;" vertex="1" parent="ERNzCt0yIxXoB6CuUdiW-28">
          <mxGeometry x="16" y="20" width="120" height="80" as="geometry" />
        </mxCell>
        <mxCell id="ERNzCt0yIxXoB6CuUdiW-30" value="" style="aspect=fixed;sketch=0;html=1;dashed=0;whitespace=wrap;verticalLabelPosition=bottom;verticalAlign=top;fillColor=#2875E2;strokeColor=#ffffff;points=[[0.005,0.63,0],[0.1,0.2,0],[0.9,0.2,0],[0.5,0,0],[0.995,0.63,0],[0.72,0.99,0],[0.5,1,0],[0.28,0.99,0]];shape=mxgraph.kubernetes.icon2;kubernetesLabel=1;prIcon=pod" vertex="1" parent="ERNzCt0yIxXoB6CuUdiW-28">
          <mxGeometry width="50" height="48" as="geometry" />
        </mxCell>
        <mxCell id="ERNzCt0yIxXoB6CuUdiW-9" value="Banco de dados de processamento" style="shape=cylinder3;whiteSpace=wrap;html=1;boundedLbl=1;backgroundOutline=1;size=15;fillColor=#e1d5e7;strokeColor=#9673a6;" vertex="1" parent="ERNzCt0yIxXoB6CuUdiW-11">
          <mxGeometry x="526" y="40" width="60" height="80" as="geometry" />
        </mxCell>
        <mxCell id="ERNzCt0yIxXoB6CuUdiW-56" value="" style="group" connectable="0" vertex="1" parent="ERNzCt0yIxXoB6CuUdiW-11">
          <mxGeometry x="106" y="610" width="135" height="65" as="geometry" />
        </mxCell>
        <mxCell id="ERNzCt0yIxXoB6CuUdiW-54" value="" style="points=[];aspect=fixed;html=1;align=center;shadow=0;dashed=0;fillColor=#FF6A00;strokeColor=none;shape=mxgraph.alibaba_cloud.kafka;" vertex="1" parent="ERNzCt0yIxXoB6CuUdiW-56">
          <mxGeometry x="14" width="56.699999999999996" height="42" as="geometry" />
        </mxCell>
        <mxCell id="ERNzCt0yIxXoB6CuUdiW-55" value="Fila de processamento (Kafka)" style="text;html=1;align=center;verticalAlign=middle;resizable=0;points=[];autosize=1;strokeColor=none;fillColor=none;" vertex="1" parent="ERNzCt0yIxXoB6CuUdiW-56">
          <mxGeometry x="-55" y="35" width="190" height="30" as="geometry" />
        </mxCell>
        <mxCell id="ERNzCt0yIxXoB6CuUdiW-116" style="edgeStyle=orthogonalEdgeStyle;rounded=0;orthogonalLoop=1;jettySize=auto;html=1;exitX=1;exitY=0.25;exitDx=0;exitDy=0;dashed=1;fillColor=#e1d5e7;strokeColor=#9673a6;" edge="1" parent="ERNzCt0yIxXoB6CuUdiW-11" source="ERNzCt0yIxXoB6CuUdiW-3" target="ERNzCt0yIxXoB6CuUdiW-9">
          <mxGeometry relative="1" as="geometry">
            <Array as="points">
              <mxPoint x="446" y="123" />
              <mxPoint x="446" y="80" />
            </Array>
          </mxGeometry>
        </mxCell>
        <mxCell id="ERNzCt0yIxXoB6CuUdiW-44" value="" style="group" connectable="0" vertex="1" parent="ERNzCt0yIxXoB6CuUdiW-11">
          <mxGeometry x="46" y="720" width="354" height="550" as="geometry" />
        </mxCell>
        <mxCell id="ERNzCt0yIxXoB6CuUdiW-45" value="" style="rounded=0;whiteSpace=wrap;html=1;" vertex="1" parent="ERNzCt0yIxXoB6CuUdiW-44">
          <mxGeometry y="30" width="354" height="460" as="geometry" />
        </mxCell>
        <mxCell id="ERNzCt0yIxXoB6CuUdiW-46" value="" style="aspect=fixed;sketch=0;html=1;dashed=0;whitespace=wrap;verticalLabelPosition=bottom;verticalAlign=top;fillColor=#2875E2;strokeColor=#ffffff;points=[[0.005,0.63,0],[0.1,0.2,0],[0.9,0.2,0],[0.5,0,0],[0.995,0.63,0],[0.72,0.99,0],[0.5,1,0],[0.28,0.99,0]];shape=mxgraph.kubernetes.icon2;kubernetesLabel=1;prIcon=node" vertex="1" parent="ERNzCt0yIxXoB6CuUdiW-44">
          <mxGeometry x="156.02560975609754" y="10" width="41.951219512195124" height="40.27317073170732" as="geometry" />
        </mxCell>
        <mxCell id="ERNzCt0yIxXoB6CuUdiW-47" value="" style="group" connectable="0" vertex="1" parent="ERNzCt0yIxXoB6CuUdiW-44">
          <mxGeometry x="60.4390243902439" y="65" width="117.42439024390245" height="100" as="geometry" />
        </mxCell>
        <mxCell id="ERNzCt0yIxXoB6CuUdiW-48" value="Serviço video-processor" style="shape=hexagon;perimeter=hexagonPerimeter2;whiteSpace=wrap;html=1;fixedSize=1;" vertex="1" parent="ERNzCt0yIxXoB6CuUdiW-47">
          <mxGeometry x="13.814634146341463" y="20" width="103.60975609756098" height="80" as="geometry" />
        </mxCell>
        <mxCell id="ERNzCt0yIxXoB6CuUdiW-49" value="" style="aspect=fixed;sketch=0;html=1;dashed=0;whitespace=wrap;verticalLabelPosition=bottom;verticalAlign=top;fillColor=#2875E2;strokeColor=#ffffff;points=[[0.005,0.63,0],[0.1,0.2,0],[0.9,0.2,0],[0.5,0,0],[0.995,0.63,0],[0.72,0.99,0],[0.5,1,0],[0.28,0.99,0]];shape=mxgraph.kubernetes.icon2;kubernetesLabel=1;prIcon=pod" vertex="1" parent="ERNzCt0yIxXoB6CuUdiW-47">
          <mxGeometry width="41.951219512195124" height="40.27317073170732" as="geometry" />
        </mxCell>
        <mxCell id="ERNzCt0yIxXoB6CuUdiW-89" value="" style="group" connectable="0" vertex="1" parent="ERNzCt0yIxXoB6CuUdiW-44">
          <mxGeometry x="60.4390243902439" y="320" width="117.42439024390245" height="100" as="geometry" />
        </mxCell>
        <mxCell id="ERNzCt0yIxXoB6CuUdiW-90" value="Serviço video-processor" style="shape=hexagon;perimeter=hexagonPerimeter2;whiteSpace=wrap;html=1;fixedSize=1;" vertex="1" parent="ERNzCt0yIxXoB6CuUdiW-89">
          <mxGeometry x="13.814634146341463" y="20" width="103.60975609756098" height="80" as="geometry" />
        </mxCell>
        <mxCell id="ERNzCt0yIxXoB6CuUdiW-91" value="" style="aspect=fixed;sketch=0;html=1;dashed=0;whitespace=wrap;verticalLabelPosition=bottom;verticalAlign=top;fillColor=#2875E2;strokeColor=#ffffff;points=[[0.005,0.63,0],[0.1,0.2,0],[0.9,0.2,0],[0.5,0,0],[0.995,0.63,0],[0.72,0.99,0],[0.5,1,0],[0.28,0.99,0]];shape=mxgraph.kubernetes.icon2;kubernetesLabel=1;prIcon=pod" vertex="1" parent="ERNzCt0yIxXoB6CuUdiW-89">
          <mxGeometry width="41.951219512195124" height="40.27317073170732" as="geometry" />
        </mxCell>
        <mxCell id="ERNzCt0yIxXoB6CuUdiW-113" style="edgeStyle=orthogonalEdgeStyle;rounded=0;orthogonalLoop=1;jettySize=auto;html=1;entryX=1;entryY=0.5;entryDx=0;entryDy=0;exitX=0.527;exitY=1.017;exitDx=0;exitDy=0;exitPerimeter=0;" edge="1" parent="ERNzCt0yIxXoB6CuUdiW-11" source="ERNzCt0yIxXoB6CuUdiW-55" target="ERNzCt0yIxXoB6CuUdiW-48">
          <mxGeometry relative="1" as="geometry">
            <Array as="points">
              <mxPoint x="151" y="720" />
              <mxPoint x="276" y="720" />
              <mxPoint x="276" y="845" />
            </Array>
          </mxGeometry>
        </mxCell>
        <mxCell id="ERNzCt0yIxXoB6CuUdiW-114" style="edgeStyle=orthogonalEdgeStyle;rounded=0;orthogonalLoop=1;jettySize=auto;html=1;entryX=1;entryY=0.5;entryDx=0;entryDy=0;exitX=0.527;exitY=0.93;exitDx=0;exitDy=0;exitPerimeter=0;" edge="1" parent="ERNzCt0yIxXoB6CuUdiW-11" source="ERNzCt0yIxXoB6CuUdiW-55" target="ERNzCt0yIxXoB6CuUdiW-90">
          <mxGeometry relative="1" as="geometry">
            <Array as="points">
              <mxPoint x="151" y="720" />
              <mxPoint x="276" y="720" />
              <mxPoint x="276" y="1100" />
            </Array>
          </mxGeometry>
        </mxCell>
        <mxCell id="ERNzCt0yIxXoB6CuUdiW-108" style="edgeStyle=orthogonalEdgeStyle;rounded=0;orthogonalLoop=1;jettySize=auto;html=1;" edge="1" parent="ERNzCt0yIxXoB6CuUdiW-11" source="ERNzCt0yIxXoB6CuUdiW-29">
          <mxGeometry relative="1" as="geometry">
            <mxPoint x="146" y="610" as="targetPoint" />
            <Array as="points">
              <mxPoint x="276" y="420" />
              <mxPoint x="276" y="570" />
              <mxPoint x="146" y="570" />
            </Array>
          </mxGeometry>
        </mxCell>
        <mxCell id="ERNzCt0yIxXoB6CuUdiW-110" style="edgeStyle=orthogonalEdgeStyle;rounded=0;orthogonalLoop=1;jettySize=auto;html=1;" edge="1" parent="ERNzCt0yIxXoB6CuUdiW-11" source="ERNzCt0yIxXoB6CuUdiW-3">
          <mxGeometry relative="1" as="geometry">
            <mxPoint x="146" y="610" as="targetPoint" />
            <Array as="points">
              <mxPoint x="276" y="140" />
              <mxPoint x="276" y="570" />
              <mxPoint x="146" y="570" />
              <mxPoint x="146" y="590" />
            </Array>
          </mxGeometry>
        </mxCell>
        <mxCell id="ERNzCt0yIxXoB6CuUdiW-121" style="edgeStyle=orthogonalEdgeStyle;rounded=0;orthogonalLoop=1;jettySize=auto;html=1;exitX=1;exitY=0.25;exitDx=0;exitDy=0;entryX=0;entryY=0.5;entryDx=0;entryDy=0;entryPerimeter=0;dashed=1;fillColor=#e1d5e7;strokeColor=#9673a6;" edge="1" parent="ERNzCt0yIxXoB6CuUdiW-11" source="ERNzCt0yIxXoB6CuUdiW-29" target="ERNzCt0yIxXoB6CuUdiW-9">
          <mxGeometry relative="1" as="geometry">
            <Array as="points">
              <mxPoint x="446" y="403" />
              <mxPoint x="446" y="80" />
            </Array>
          </mxGeometry>
        </mxCell>
        <mxCell id="ERNzCt0yIxXoB6CuUdiW-122" style="edgeStyle=orthogonalEdgeStyle;rounded=0;orthogonalLoop=1;jettySize=auto;html=1;entryX=0;entryY=0.5;entryDx=0;entryDy=0;entryPerimeter=0;dashed=1;fillColor=#d5e8d4;strokeColor=#82b366;exitX=0.5;exitY=1;exitDx=0;exitDy=0;" edge="1" parent="ERNzCt0yIxXoB6CuUdiW-11" source="ERNzCt0yIxXoB6CuUdiW-3" target="4UHAEjeXucZvTbj_oyXL-2">
          <mxGeometry relative="1" as="geometry">
            <Array as="points">
              <mxPoint x="189" y="280" />
              <mxPoint x="466" y="280" />
              <mxPoint x="466" y="201" />
            </Array>
            <mxPoint x="219" y="279.9999999999998" as="sourcePoint" />
          </mxGeometry>
        </mxCell>
        <mxCell id="ERNzCt0yIxXoB6CuUdiW-123" style="edgeStyle=orthogonalEdgeStyle;rounded=0;orthogonalLoop=1;jettySize=auto;html=1;fillColor=#d5e8d4;strokeColor=#82b366;dashed=1;exitX=0.5;exitY=1;exitDx=0;exitDy=0;" edge="1" parent="ERNzCt0yIxXoB6CuUdiW-11" source="ERNzCt0yIxXoB6CuUdiW-48">
          <mxGeometry relative="1" as="geometry">
            <Array as="points">
              <mxPoint x="172" y="970" />
              <mxPoint x="466" y="970" />
              <mxPoint x="466" y="200" />
            </Array>
            <mxPoint x="197.9609756097559" y="969.9999999999998" as="sourcePoint" />
            <mxPoint x="516" y="200" as="targetPoint" />
          </mxGeometry>
        </mxCell>
        <mxCell id="ERNzCt0yIxXoB6CuUdiW-127" value="" style="group" connectable="0" vertex="1" parent="ERNzCt0yIxXoB6CuUdiW-11">
          <mxGeometry x="306" y="610" width="200" height="70" as="geometry" />
        </mxCell>
        <mxCell id="ERNzCt0yIxXoB6CuUdiW-128" value="" style="points=[];aspect=fixed;html=1;align=center;shadow=0;dashed=0;fillColor=#FF6A00;strokeColor=none;shape=mxgraph.alibaba_cloud.kafka;" vertex="1" parent="ERNzCt0yIxXoB6CuUdiW-127">
          <mxGeometry x="14" width="56.699999999999996" height="42" as="geometry" />
        </mxCell>
        <mxCell id="ERNzCt0yIxXoB6CuUdiW-129" value="Fila de retorno de processamento&lt;div&gt;&amp;nbsp;(Kafka)&lt;/div&gt;" style="text;html=1;align=center;verticalAlign=middle;resizable=0;points=[];autosize=1;strokeColor=none;fillColor=none;" vertex="1" parent="ERNzCt0yIxXoB6CuUdiW-127">
          <mxGeometry x="-60" y="30" width="200" height="40" as="geometry" />
        </mxCell>
        <mxCell id="ERNzCt0yIxXoB6CuUdiW-130" style="edgeStyle=orthogonalEdgeStyle;rounded=0;orthogonalLoop=1;jettySize=auto;html=1;exitX=1;exitY=0.75;exitDx=0;exitDy=0;" edge="1" parent="ERNzCt0yIxXoB6CuUdiW-11" source="ERNzCt0yIxXoB6CuUdiW-90" target="ERNzCt0yIxXoB6CuUdiW-129">
          <mxGeometry relative="1" as="geometry" />
        </mxCell>
        <mxCell id="ERNzCt0yIxXoB6CuUdiW-131" style="edgeStyle=orthogonalEdgeStyle;rounded=0;orthogonalLoop=1;jettySize=auto;html=1;exitX=1;exitY=0.75;exitDx=0;exitDy=0;" edge="1" parent="ERNzCt0yIxXoB6CuUdiW-11" source="ERNzCt0yIxXoB6CuUdiW-48" target="ERNzCt0yIxXoB6CuUdiW-129">
          <mxGeometry relative="1" as="geometry" />
        </mxCell>
        <mxCell id="ERNzCt0yIxXoB6CuUdiW-132" style="edgeStyle=orthogonalEdgeStyle;rounded=0;orthogonalLoop=1;jettySize=auto;html=1;entryX=1;entryY=0.75;entryDx=0;entryDy=0;" edge="1" parent="ERNzCt0yIxXoB6CuUdiW-11" source="ERNzCt0yIxXoB6CuUdiW-128" target="ERNzCt0yIxXoB6CuUdiW-29">
          <mxGeometry relative="1" as="geometry">
            <Array as="points">
              <mxPoint x="346" y="437" />
            </Array>
          </mxGeometry>
        </mxCell>
        <mxCell id="ERNzCt0yIxXoB6CuUdiW-133" style="edgeStyle=orthogonalEdgeStyle;rounded=0;orthogonalLoop=1;jettySize=auto;html=1;entryX=1;entryY=0.75;entryDx=0;entryDy=0;" edge="1" parent="ERNzCt0yIxXoB6CuUdiW-11" source="ERNzCt0yIxXoB6CuUdiW-128" target="ERNzCt0yIxXoB6CuUdiW-3">
          <mxGeometry relative="1" as="geometry">
            <Array as="points">
              <mxPoint x="346" y="157" />
            </Array>
          </mxGeometry>
        </mxCell>
        <mxCell id="ERNzCt0yIxXoB6CuUdiW-134" value="Servidor SMTP" style="sketch=0;pointerEvents=1;shadow=0;dashed=0;html=1;strokeColor=#d79b00;labelPosition=center;verticalLabelPosition=bottom;verticalAlign=top;align=center;fillColor=#ffe6cc;shape=mxgraph.mscae.intune.intune_email_profiles" vertex="1" parent="ERNzCt0yIxXoB6CuUdiW-11">
          <mxGeometry x="531" y="300" width="50" height="50" as="geometry" />
        </mxCell>
        <mxCell id="ERNzCt0yIxXoB6CuUdiW-135" style="edgeStyle=orthogonalEdgeStyle;rounded=0;orthogonalLoop=1;jettySize=auto;html=1;entryX=0;entryY=0.5;entryDx=0;entryDy=0;entryPerimeter=0;dashed=1;fillColor=#ffe6cc;strokeColor=#d79b00;" edge="1" parent="ERNzCt0yIxXoB6CuUdiW-11" source="ERNzCt0yIxXoB6CuUdiW-3" target="ERNzCt0yIxXoB6CuUdiW-134">
          <mxGeometry relative="1" as="geometry">
            <Array as="points">
              <mxPoint x="486" y="170" />
              <mxPoint x="486" y="325" />
            </Array>
          </mxGeometry>
        </mxCell>
        <mxCell id="ERNzCt0yIxXoB6CuUdiW-138" style="edgeStyle=orthogonalEdgeStyle;rounded=0;orthogonalLoop=1;jettySize=auto;html=1;entryX=0;entryY=0.5;entryDx=0;entryDy=0;entryPerimeter=0;fillColor=#ffe6cc;strokeColor=#d79b00;dashed=1;" edge="1" parent="ERNzCt0yIxXoB6CuUdiW-11" source="ERNzCt0yIxXoB6CuUdiW-29" target="ERNzCt0yIxXoB6CuUdiW-134">
          <mxGeometry relative="1" as="geometry">
            <Array as="points">
              <mxPoint x="486" y="450" />
              <mxPoint x="486" y="325" />
            </Array>
          </mxGeometry>
        </mxCell>
        <mxCell id="VZ42x-jz7ws2eZeIaA3v-1" style="edgeStyle=orthogonalEdgeStyle;rounded=0;orthogonalLoop=1;jettySize=auto;html=1;entryX=0;entryY=0.5;entryDx=0;entryDy=0;entryPerimeter=0;dashed=1;fillColor=#d5e8d4;strokeColor=#82b366;exitX=0.5;exitY=0;exitDx=0;exitDy=0;" edge="1" parent="ERNzCt0yIxXoB6CuUdiW-11" source="ERNzCt0yIxXoB6CuUdiW-29" target="4UHAEjeXucZvTbj_oyXL-2">
          <mxGeometry relative="1" as="geometry">
            <Array as="points">
              <mxPoint x="189" y="280" />
              <mxPoint x="466" y="280" />
              <mxPoint x="466" y="201" />
            </Array>
            <mxPoint x="199" y="190" as="sourcePoint" />
            <mxPoint x="536" y="210" as="targetPoint" />
          </mxGeometry>
        </mxCell>
        <mxCell id="VZ42x-jz7ws2eZeIaA3v-2" style="edgeStyle=orthogonalEdgeStyle;rounded=0;orthogonalLoop=1;jettySize=auto;html=1;entryX=0;entryY=0.5;entryDx=0;entryDy=0;entryPerimeter=0;fillColor=#d5e8d4;strokeColor=#82b366;dashed=1;exitX=0.5;exitY=0;exitDx=0;exitDy=0;" edge="1" parent="ERNzCt0yIxXoB6CuUdiW-11" source="ERNzCt0yIxXoB6CuUdiW-90" target="4UHAEjeXucZvTbj_oyXL-2">
          <mxGeometry relative="1" as="geometry">
            <Array as="points">
              <mxPoint x="172" y="970" />
              <mxPoint x="466" y="970" />
              <mxPoint x="466" y="200" />
              <mxPoint x="523" y="200" />
              <mxPoint x="523" y="201" />
            </Array>
            <mxPoint x="182" y="895" as="sourcePoint" />
            <mxPoint x="536" y="210" as="targetPoint" />
          </mxGeometry>
        </mxCell>
        <mxCell id="4UHAEjeXucZvTbj_oyXL-2" value="AWS S3" style="sketch=0;points=[[0,0,0],[0.25,0,0],[0.5,0,0],[0.75,0,0],[1,0,0],[0,1,0],[0.25,1,0],[0.5,1,0],[0.75,1,0],[1,1,0],[0,0.25,0],[0,0.5,0],[0,0.75,0],[1,0.25,0],[1,0.5,0],[1,0.75,0]];outlineConnect=0;fontColor=#232F3E;fillColor=#7AA116;strokeColor=#ffffff;dashed=0;verticalLabelPosition=bottom;verticalAlign=top;align=center;html=1;fontSize=12;fontStyle=0;aspect=fixed;shape=mxgraph.aws4.resourceIcon;resIcon=mxgraph.aws4.s3;" vertex="1" parent="ERNzCt0yIxXoB6CuUdiW-11">
          <mxGeometry x="517" y="162" width="78" height="78" as="geometry" />
        </mxCell>
        <mxCell id="4UHAEjeXucZvTbj_oyXL-5" value="AWS SES" style="outlineConnect=0;dashed=0;verticalLabelPosition=bottom;verticalAlign=top;align=center;html=1;shape=mxgraph.aws3.ses;fillColor=#D9A741;gradientColor=none;" vertex="1" parent="ERNzCt0yIxXoB6CuUdiW-11">
          <mxGeometry x="516.25" y="430" width="79.5" height="93" as="geometry" />
        </mxCell>
        <mxCell id="4UHAEjeXucZvTbj_oyXL-4" style="edgeStyle=orthogonalEdgeStyle;rounded=0;orthogonalLoop=1;jettySize=auto;html=1;entryX=0;entryY=0.48;entryDx=0;entryDy=0;entryPerimeter=0;dashed=1;fillColor=#f8cecc;strokeColor=#b85450;" edge="1" parent="ERNzCt0yIxXoB6CuUdiW-11" source="ERNzCt0yIxXoB6CuUdiW-29" target="4UHAEjeXucZvTbj_oyXL-5">
          <mxGeometry relative="1" as="geometry">
            <Array as="points">
              <mxPoint x="189" y="490" />
              <mxPoint x="486" y="490" />
              <mxPoint x="486" y="475" />
            </Array>
          </mxGeometry>
        </mxCell>
        <mxCell id="ERNzCt0yIxXoB6CuUdiW-78" style="edgeStyle=orthogonalEdgeStyle;rounded=0;orthogonalLoop=1;jettySize=auto;html=1;entryX=0;entryY=0.5;entryDx=0;entryDy=0;" edge="1" parent="ERNzCt0yIxXoB6CuUdiW-7" source="ERNzCt0yIxXoB6CuUdiW-50" target="ERNzCt0yIxXoB6CuUdiW-39">
          <mxGeometry relative="1" as="geometry">
            <Array as="points">
              <mxPoint x="190" y="215" />
              <mxPoint x="190" y="180" />
            </Array>
          </mxGeometry>
        </mxCell>
        <mxCell id="ERNzCt0yIxXoB6CuUdiW-79" style="edgeStyle=orthogonalEdgeStyle;rounded=0;orthogonalLoop=1;jettySize=auto;html=1;entryX=0;entryY=0.5;entryDx=0;entryDy=0;" edge="1" parent="ERNzCt0yIxXoB6CuUdiW-7" source="ERNzCt0yIxXoB6CuUdiW-50" target="ERNzCt0yIxXoB6CuUdiW-72">
          <mxGeometry relative="1" as="geometry">
            <Array as="points">
              <mxPoint x="190" y="215" />
              <mxPoint x="190" y="284" />
            </Array>
          </mxGeometry>
        </mxCell>
        <mxCell id="ERNzCt0yIxXoB6CuUdiW-50" value="Load balancer" style="outlineConnect=0;dashed=0;verticalLabelPosition=bottom;verticalAlign=top;align=center;html=1;shape=mxgraph.aws3.classic_load_balancer;fillColor=#F58536;gradientColor=none;" vertex="1" parent="ERNzCt0yIxXoB6CuUdiW-7">
          <mxGeometry x="70" y="179" width="69" height="72" as="geometry" />
        </mxCell>
        <mxCell id="ERNzCt0yIxXoB6CuUdiW-81" style="edgeStyle=orthogonalEdgeStyle;rounded=0;orthogonalLoop=1;jettySize=auto;html=1;entryX=0;entryY=0.5;entryDx=0;entryDy=0;" edge="1" parent="ERNzCt0yIxXoB6CuUdiW-7" source="ERNzCt0yIxXoB6CuUdiW-52" target="ERNzCt0yIxXoB6CuUdiW-3">
          <mxGeometry relative="1" as="geometry">
            <Array as="points">
              <mxPoint x="190" y="626" />
              <mxPoint x="190" y="570" />
            </Array>
          </mxGeometry>
        </mxCell>
        <mxCell id="ERNzCt0yIxXoB6CuUdiW-82" style="edgeStyle=orthogonalEdgeStyle;rounded=0;orthogonalLoop=1;jettySize=auto;html=1;entryX=0;entryY=0.5;entryDx=0;entryDy=0;" edge="1" parent="ERNzCt0yIxXoB6CuUdiW-7" source="ERNzCt0yIxXoB6CuUdiW-52" target="ERNzCt0yIxXoB6CuUdiW-29">
          <mxGeometry relative="1" as="geometry">
            <Array as="points">
              <mxPoint x="190" y="626" />
              <mxPoint x="190" y="850" />
            </Array>
          </mxGeometry>
        </mxCell>
        <mxCell id="ERNzCt0yIxXoB6CuUdiW-52" value="Load balancer" style="outlineConnect=0;dashed=0;verticalLabelPosition=bottom;verticalAlign=top;align=center;html=1;shape=mxgraph.aws3.classic_load_balancer;fillColor=#F58536;gradientColor=none;" vertex="1" parent="ERNzCt0yIxXoB6CuUdiW-7">
          <mxGeometry x="70" y="590" width="69" height="72" as="geometry" />
        </mxCell>
        <mxCell id="ERNzCt0yIxXoB6CuUdiW-68" style="edgeStyle=orthogonalEdgeStyle;rounded=0;orthogonalLoop=1;jettySize=auto;html=1;entryX=0;entryY=0.5;entryDx=0;entryDy=0;entryPerimeter=0;" edge="1" parent="1" source="ERNzCt0yIxXoB6CuUdiW-5" target="ERNzCt0yIxXoB6CuUdiW-50">
          <mxGeometry relative="1" as="geometry" />
        </mxCell>
        <mxCell id="ERNzCt0yIxXoB6CuUdiW-69" value="HTTP REST" style="edgeLabel;html=1;align=center;verticalAlign=middle;resizable=0;points=[];" connectable="0" vertex="1" parent="ERNzCt0yIxXoB6CuUdiW-68">
          <mxGeometry x="0.1739" y="-5" relative="1" as="geometry">
            <mxPoint x="-23" y="-20" as="offset" />
          </mxGeometry>
        </mxCell>
        <mxCell id="ERNzCt0yIxXoB6CuUdiW-83" style="edgeStyle=orthogonalEdgeStyle;rounded=0;orthogonalLoop=1;jettySize=auto;html=1;entryX=0;entryY=0.5;entryDx=0;entryDy=0;entryPerimeter=0;" edge="1" parent="1" source="ERNzCt0yIxXoB6CuUdiW-5" target="ERNzCt0yIxXoB6CuUdiW-52">
          <mxGeometry relative="1" as="geometry">
            <Array as="points">
              <mxPoint x="180" y="235" />
              <mxPoint x="180" y="646" />
            </Array>
          </mxGeometry>
        </mxCell>
        <mxCell id="ERNzCt0yIxXoB6CuUdiW-84" value="HTTP REST" style="edgeLabel;html=1;align=center;verticalAlign=middle;resizable=0;points=[];" connectable="0" vertex="1" parent="ERNzCt0yIxXoB6CuUdiW-83">
          <mxGeometry x="-0.3512" y="3" relative="1" as="geometry">
            <mxPoint x="-13" y="336" as="offset" />
          </mxGeometry>
        </mxCell>
      </root>
    </mxGraphModel>
  </diagram>
</mxfile>
